
<svg xmlns="http://www.w3.org/2000/svg" viewBox="0 0 94.13 94.13"><g id="Layer_2" data-name="Layer 2"><g id="Layer_1-2" data-name="Layer 1"><path d="M89.87,11.41,82.73,4.26a14.59,14.59,0,0,0-20.61,0L8.89,57.5a.48.48,0,0,0-.09.11.93.93,0,0,0-.13.15l-.11.18a.8.8,0,0,0-.08.16,1.8,1.8,0,0,0-.08.21l0,.12L.06,91.65A2,2,0,0,0,2,94.13a2,2,0,0,0,.48-.06l33.23-8.3.12,0,.2-.07.18-.09.16-.1.17-.15.1-.07L89.87,32A14.58,14.58,0,0,0,89.87,11.41ZM57.16,14.88,79.26,37l-44,44L13.13,58.91ZM11.38,62.82,31.31,82.75,4.75,89.39ZM87.05,29.18l-5,5L60,12.05l5-5a10.59,10.59,0,0,1,15,0l7.15,7.15A10.57,10.57,0,0,1,87.05,29.18Z"/></g></g></svg>