
<?xml version="1.0" encoding="utf-8"?>
<!-- Generator: Adobe Illustrator 24.1.0, SVG Export Plug-In . SVG Version: 6.00 Build 0)  -->
<svg version="1.1" id="Layer_1" xmlns="http://www.w3.org/2000/svg" xmlns:xlink="http://www.w3.org/1999/xlink" x="0px" y="0px"
	 viewBox="0 0 94.1 94.1" style="enable-background:new 0 0 94.1 94.1;" xml:space="preserve">
<path id="Layer_2_1_" d="M82.5,16.1c-0.1-0.1-0.2-0.2-0.3-0.3C64.8-3.7,34.9-5.5,15.5,11.9s-21.2,47.2-3.8,66.7s47.2,21.2,66.7,3.8
	C97.7,65.2,99.5,35.6,82.5,16.1z M47.1,90.1C23.3,90.1,4,70.9,4,47.1S23.2,4,47,4c11.8,0,23.1,4.8,31.2,13.4L46.8,59.1L27.1,39.8
	c-0.8-0.8-2.1-0.8-2.8,0c-0.8,0.8-0.8,2.1,0,2.8l0,0l23,22.5l33.6-44.7c14.7,18.6,11.6,45.7-7,60.4C66.3,86.9,56.8,90.2,47.1,90.1z"
	/>
</svg>