
<?xml version="1.0" encoding="utf-8"?>
<!-- Generator: Adobe Illustrator 24.1.0, SVG Export Plug-In . SVG Version: 6.00 Build 0)  -->
<svg version="1.1" id="Layer_1" xmlns="http://www.w3.org/2000/svg" xmlns:xlink="http://www.w3.org/1999/xlink" x="0px" y="0px"
	 viewBox="0 0 94 94.1" style="enable-background:new 0 0 94 94.1;" xml:space="preserve">
<path id="Layer_2_1_" d="M48.3,58.2H23.6c-1.1,0-2,0.9-2,2s0.9,2,2,2h24.7c1.1,0,2-0.9,2-2S49.4,58.2,48.3,58.2z M48.3,64.2H23.6
	c-1.1,0-2,0.9-2,2s0.9,2,2,2h24.7c1.1,0,2-0.9,2-2S49.4,64.2,48.3,64.2z M38.7,70.2H23.6c-1.1,0-2,0.9-2,2s0.9,2,2,2h15.1
	c1.1,0,2-0.9,2-2S39.8,70.2,38.7,70.2z M94,24.2H79.5V0H14.6v24.2H0v52.4h13.4v17.6h67.7V76.6H94V24.2z M18.6,4h56.9v20.2H18.6V4z
	 M77.1,90.1H17.4V52.4h59.7V90.1z M90,72.6h-8.9V48.4H13.4v24.2H4V28.2h86V72.6z"/>
</svg>
