<svg xmlns="http://www.w3.org/2000/svg" viewBox="0 0 91.49 93.49"><g id="Layer_2" data-name="Layer 2"><g id="Layer_1-2" data-name="Layer 1"><path d="M78.45,35.26a2,2,0,0,0-2,2V87.75a1.74,1.74,0,0,1-1.74,1.74H16.78A1.74,1.74,0,0,1,15,87.75V37.26a2,2,0,0,0-4,0V87.75a5.74,5.74,0,0,0,5.74,5.74H74.71a5.74,5.74,0,0,0,5.74-5.74V37.26A2,2,0,0,0,78.45,35.26Z"/><path d="M31.39,73.8v-28a2,2,0,0,0-4,0v28a2,2,0,0,0,4,0Z"/><path d="M47.74,73.8v-28a2,2,0,0,0-4,0v28a2,2,0,0,0,4,0Z"/><path d="M64.1,73.8v-28a2,2,0,1,0-4,0v28a2,2,0,0,0,4,0Z"/><path d="M89.49,28.44h-9V20.66a5.75,5.75,0,0,0-5.74-5.75H61.11A15.4,15.4,0,0,0,45.75,0h0A15.4,15.4,0,0,0,30.38,14.91H16.78A5.75,5.75,0,0,0,11,20.66v7.78H2a2,2,0,1,0,0,4H89.49a2,2,0,1,0,0-4ZM45.75,4A11.4,11.4,0,0,1,57.12,14.91H34.37A11.4,11.4,0,0,1,45.75,4ZM15,20.66a1.74,1.74,0,0,1,1.74-1.75H74.71a1.74,1.74,0,0,1,1.74,1.75v7.78H15Z"/></g></g></svg>