
<svg xmlns="http://www.w3.org/2000/svg" xmlns:xlink="http://www.w3.org/1999/xlink" version="1.1" id="Layer_1" x="0px" y="0px" viewBox="0 0 143 143" style="enable-background:new 0 0 143 143;" xml:space="preserve">
<g id="Layer_2-2">
	<g id="Layer_1-2-2">
		<path d="M45.1,136c-2.5,0-5-1-6.7-2.9c-7.2-7.6-6.1-29.2-4.7-54.2c0.5-9.4,1-19.2,1-28C34.6,18.4,9,12.2,8,11.9    c-1.4-0.3-2.2-1.6-2-3c0.3-1.4,1.6-2.2,3-2c0.3,0.1,30.6,7.2,30.6,43.8c0,9-0.5,18.8-1,28.3c-1.1,21.9-2.3,44.5,3.4,50.6    c0.8,0.9,1.9,1.4,3.1,1.4c1.4,0,2.5,1.1,2.5,2.5S46.5,136,45.1,136L45.1,136z"/>
		<path d="M82.4,135.2c-26.3,0-26.3-46.5-26.3-77.2c0-28.7-17.5-42-29.3-42c-1.4,0-2.5-1.1-2.5-2.5s1.1-2.5,2.5-2.5    c16.5,0,34.3,18,34.3,47c0,14.6,0,32.7,2.9,47.6c3.3,16.6,9.3,24.6,18.4,24.6c19.7,0,36.3-12.7,43.4-18.1c1.2-0.9,2.2-1.7,2.9-2.1    c1.8-1.2,3-3.8,3.1-6.5c0.1-2.7-1.1-5.3-3.2-6.9l-0.3-0.2c-2.3-2.3-3.2-5.7-3.9-8.4l-0.3-1.2c-0.6,0.6-1.3,1.4-1.8,2    c-1.8,2-3.6,4-5.4,4.9c-1.2,0.7-2.7,0.3-3.4-0.8s-0.3-2.7,0.8-3.4c0.1,0,0.1-0.1,0.2-0.1l0.2-0.1c1-0.5,2.7-2.4,3.9-3.8    c2.4-2.7,4.1-4.6,6.2-4.6c0.9,0,1.7,0.3,2.4,0.9c1.1,1.1,1.6,2.9,2.2,5s1.2,4.6,2.5,6c3.3,2.6,5.2,6.7,5,10.9    c-0.1,4.4-2.1,8.4-5.3,10.5c-0.6,0.4-1.5,1.1-2.6,2C121.4,121.8,103.8,135.2,82.4,135.2z"/>
		<path d="M121.9,87.9c-1.4,0-2.5-1.1-2.5-2.5c0,0,0,0,0,0c0-0.7,0.3-1.3,0.8-1.8c1.4-1.3,1.5-3.4,0.4-4.8c-0.5-0.5-2-0.4-3-0.3    h-1.2c-0.9,0-1.8-0.4-2.3-1.2c-1.1-1.5-0.4-3.3,0.6-5.9c0.6-1.4,1-2.9,1.2-4.4c0-2.5-0.4-3.3-3.2-3.3c-0.2,0-16.5-1.2-20.8-5.5    c-1.9-1.9-3.2-4.4-4.6-7.4c-1.4-3.1-3.2-6-5.1-8.8c-3.5-4.7-16.3-9-20.9-10.2c-1.4-0.2-2.3-1.5-2.1-2.9c0.2-1.4,1.5-2.3,2.8-2.1    c0.2,0,0.4,0.1,0.6,0.2c1.9,0.5,18.5,5.2,23.6,12c2.2,3,4,6.2,5.6,9.5c1.3,2.6,2.4,4.8,3.7,6.1c2.2,2.2,14.8,4,17.3,4    c3.7,0,8.2,1.4,8.2,8.3c-0.2,2.1-0.7,4.2-1.6,6.2c0,0.1,0,0.1-0.1,0.2c1.8-0.1,3.6,0.6,5,1.8c1.5,1.6,2.3,3.7,2.2,5.9    c0,2.3-1,4.5-2.7,6.1C123.2,87.6,122.6,87.9,121.9,87.9z"/>
		<path d="M69.7,74.8c-1.4,0-2.5-1.1-2.5-2.5c0-6.3,5.9-18.4,16.8-18.4c1.4,0,2.5,1.1,2.5,2.5s-1.1,2.5-2.5,2.5    c-7.7,0-11.8,9.5-11.8,13.4C72.2,73.7,71.1,74.8,69.7,74.8z"/>
		<path d="M77.7,79.6c-1.4,0-2.5-1.1-2.5-2.5c0-1.1,0.7-2,1.7-2.4c0.1,0,4.2-1.6,8.3-7.1c0.8-1.1,2.4-1.3,3.5-0.5s1.3,2.4,0.5,3.5    c-5.2,6.9-10.5,8.7-10.8,8.8C78.2,79.5,77.9,79.5,77.7,79.6z"/>
		<path d="M73.7,91h-0.3c-1.2-0.2-2.4-0.2-3.7-0.3c-1.4,0-2.5-1.1-2.5-2.5s1.1-2.5,2.5-2.5c1.4,0,2.9,0.1,4.3,0.3    c1.4,0,2.5,1.1,2.5,2.5c0,1.4-1.1,2.5-2.5,2.5C73.9,91,73.8,91,73.7,91L73.7,91z"/>
		<path d="M104.2,110.2c-0.9,0-1.8-0.5-2.2-1.3c-1.2-2.3-2.7-4.4-4.4-6.2c-0.9-1-0.9-2.6,0.1-3.5c1-0.9,2.6-0.9,3.5,0.1    c2,2.2,3.8,4.7,5.2,7.3c0.7,1.2,0.2,2.7-1,3.4h-0.1C105,110.1,104.6,110.2,104.2,110.2z M91.3,97c-0.5,0-0.9-0.1-1.3-0.4    c-2.3-1.3-4.6-2.4-7.1-3.3c-1.3-0.4-2-1.8-1.6-3.2c0.4-1.3,1.8-2,3.2-1.6h0.1c2.8,1,5.5,2.2,8,3.7c1.2,0.6,1.8,2.1,1.2,3.3    C93.3,96.5,92.3,97.1,91.3,97z"/>
		<path d="M107.8,124.1c-1.3,0-2.4-1-2.5-2.4c-0.1-1.2-0.2-2.5-0.4-3.7c-0.2-1.4,0.7-2.6,2.1-2.9s2.6,0.7,2.9,2.1    c0.2,1.4,0.4,2.8,0.5,4.2c0.1,1.4-1,2.6-2.3,2.6L107.8,124.1z"/>
	</g>
</g>

</svg>




